<?xml version="1.0" encoding="UTF-8" standalone="no"?>
<!DOCTYPE svg PUBLIC "-//W3C//DTD SVG 20010904//EN"
              "http://www.w3.org/TR/2001/REC-SVG-20010904/DTD/svg10.dtd">

<svg xmlns="http://www.w3.org/2000/svg"
     width="3.03333in" height="3.03333in"
     viewBox="0 0 273 273">
  <path id="Selection"
        fill="#09468f" stroke="#ffffff" stroke-width="0"
        d="M 183.00,61.00
           C 183.00,61.00 163.00,41.00 163.00,41.00
             159.47,37.52 155.14,32.97 150.00,32.24
             140.05,30.81 136.11,38.42 136.00,47.00
             136.00,47.00 136.00,119.00 136.00,119.00
             136.02,133.89 140.59,136.98 155.00,137.00
             155.00,137.00 210.00,137.00 210.00,137.00
             216.31,137.00 229.73,137.76 234.96,134.84
             237.37,133.49 238.85,131.55 239.85,129.00
             243.71,119.15 233.13,111.13 227.00,105.00
             222.18,100.18 217.56,94.98 212.00,91.00
             212.00,91.00 256.00,47.00 256.00,47.00
             259.85,43.15 271.53,32.74 272.53,28.00
             273.30,24.32 271.19,21.58 268.89,19.00
             268.89,19.00 253.00,3.23 253.00,3.23
             250.02,0.78 246.78,-0.81 243.00,1.03
             239.67,2.65 226.55,16.45 223.00,20.00
             223.00,20.00 183.00,61.00 183.00,61.00 Z
           M 41.00,136.56
           C 33.96,139.07 29.80,145.75 33.31,153.00
             35.32,157.14 48.00,168.99 52.00,173.00
             53.85,174.85 59.64,179.85 59.27,182.58
             59.04,184.28 56.19,186.81 54.99,188.01
             54.99,188.01 45.00,198.00 45.00,198.00
             45.00,198.00 14.00,229.00 14.00,229.00
             10.87,232.13 1.85,240.34 0.61,244.00
             -0.55,247.45 1.09,250.39 3.23,253.00
             3.23,253.00 19.00,268.89 19.00,268.89
             21.60,271.20 24.30,273.33 28.00,272.45
             32.48,271.38 39.60,263.40 43.00,260.00
             43.00,260.00 75.00,228.00 75.00,228.00
             77.70,225.30 87.79,214.04 91.00,214.04
             93.73,214.04 98.10,219.10 100.00,221.00
             105.33,226.32 116.73,239.87 124.00,240.58
             134.92,241.65 136.99,231.27 137.00,223.00
             137.00,223.00 137.00,154.00 137.00,154.00
             136.98,140.58 133.78,136.02 120.00,136.00
             120.00,136.00 69.00,136.00 69.00,136.00
             69.00,136.00 41.00,136.56 41.00,136.56 Z" />
</svg>
